<svg width="100" height="102" viewBox="0 0 100 102" fill="none" xmlns="http://www.w3.org/2000/svg">
<path d="M69.3953 92.4375H80.6047C83.7922 90.4852 85.9375 86.9359 85.9375 82.875C85.9375 76.7231 81.0312 71.7188 75 71.7188C68.9688 71.7188 64.0625 76.7231 64.0625 82.875C64.0625 86.9359 66.2078 90.4852 69.3953 92.4375ZM75 79.6875C76.7234 79.6875 78.125 81.1171 78.125 82.875C78.125 84.6329 76.7234 86.0625 75 86.0625C73.2766 86.0625 71.875 84.6329 71.875 82.875C71.875 81.1171 73.2766 79.6875 75 79.6875Z" fill="#0097E6"/>
<path d="M57.8125 31.875C57.8125 29.2389 55.7094 27.0938 53.125 27.0938C50.5406 27.0938 48.4375 29.2389 48.4375 31.875C48.4375 34.5111 50.5406 36.6562 53.125 36.6562L57.8125 31.875Z" fill="#0097E6"/>
<path d="M46.875 11.1562C44.2906 11.1562 42.1875 9.01106 42.1875 6.375C42.1875 3.73894 44.2906 1.59375 46.875 1.59375C49.4594 1.59375 51.5625 3.73894 51.5625 6.375C51.5625 9.01106 49.4594 11.1562 46.875 11.1562Z" fill="#0097E6"/>
<path d="M71.875 17.5312L75.4578 13.8768C75.7687 13.5596 76.1344 13.3158 76.525 13.1277C76.5344 13.0018 76.5625 12.8791 76.5625 12.75C76.5625 10.1139 74.4594 7.96875 71.875 7.96875C69.2906 7.96875 67.1875 10.1139 67.1875 12.75C67.1875 15.3861 69.2906 17.5312 71.875 17.5312Z" fill="#0097E6"/>
<path d="M25 25.5C26.1813 25.5 27.2547 25.5908 28.2734 25.7247C29.1437 24.8561 29.6875 23.6497 29.6875 22.3125C29.6875 19.6764 27.5844 17.5312 25 17.5312C22.4156 17.5312 20.3125 19.6764 20.3125 22.3125C20.3125 24.9486 22.4156 27.0938 25 27.0938C25.0469 27.0938 25.0906 27.081 25.1375 27.0794C25.0078 26.1295 25 25.5 25 25.5Z" fill="#0097E6"/>
<path d="M21.875 46.2188C19.2906 46.2188 17.1875 44.0736 17.1875 41.4375C17.1875 38.8014 19.2906 36.6562 21.875 36.6562C24.4594 36.6562 26.5625 38.8014 26.5625 41.4375C26.5625 44.0736 24.4594 46.2188 21.875 46.2188Z" fill="#0097E6"/>
<path d="M7.8125 17.5312C4.36562 17.5312 1.5625 14.6721 1.5625 11.1562C1.5625 7.64044 4.36562 4.78125 7.8125 4.78125C11.2594 4.78125 14.0625 7.64044 14.0625 11.1562C14.0625 14.6721 11.2594 17.5312 7.8125 17.5312Z" fill="#0097E6"/>
<path d="M10.9375 39.8438C7.49062 39.8438 4.6875 36.9846 4.6875 33.4688C4.6875 29.9529 7.49062 27.0938 10.9375 27.0938C14.3844 27.0938 17.1875 29.9529 17.1875 33.4688C17.1875 36.9846 14.3844 39.8438 10.9375 39.8438Z" fill="#0097E6"/>
<path d="M75 39.8438C75.8629 39.8438 76.5625 39.1302 76.5625 38.25C76.5625 37.3698 75.8629 36.6562 75 36.6562C74.1371 36.6562 73.4375 37.3698 73.4375 38.25C73.4375 39.1302 74.1371 39.8438 75 39.8438Z" fill="black"/>
<path d="M82.7391 37.5153C82.5797 35.7797 81.8891 34.213 80.8141 32.9795L87.5 26.1598C88.5078 25.1318 89.0625 23.766 89.0625 22.3125C89.0625 21.1762 88.7141 20.0988 88.0844 19.1887L90.625 16.5973C91.2156 17.1997 92 17.5312 92.8344 17.5312C95.925 17.5312 98.4375 14.9685 98.4375 11.8161C98.4375 10.965 98.1125 10.1649 97.5219 9.5625L90.625 2.52769C90.0344 1.92525 89.25 1.59375 88.4156 1.59375C85.325 1.59375 82.8125 4.1565 82.8125 7.30894C82.8125 8.16 83.1375 8.96006 83.7281 9.5625L81.1813 12.1603C79.1266 10.7291 76.1484 10.9188 74.3531 12.75L50 37.5902C48.9922 38.6182 48.4375 39.984 48.4375 41.4375C48.4375 42.891 48.9922 44.2584 50 45.2848L55.6031 51C56.6109 52.028 57.95 52.5938 59.375 52.5938C60.8 52.5938 62.1406 52.028 63.1469 51L69.8328 44.1803C71.2141 45.433 73.0109 46.2188 75 46.2188C75.4719 46.2188 75.9281 46.1582 76.3766 46.0769L77.0125 46.563C82.6016 50.839 85.9375 57.6443 85.9375 64.77C85.9375 68.5727 85.0047 72.2606 83.2484 75.5724C84.0187 76.4777 84.6531 77.5041 85.1094 78.6277C87.6875 74.4727 89.0625 69.7074 89.0625 64.77C89.0625 56.975 85.5531 49.521 79.6406 44.6234C80.7266 43.7978 81.6078 42.7077 82.1562 41.4263L84.8953 44.2202C91.6125 51.0733 95.3125 60.1848 95.3125 69.8748C95.3125 76.0235 93.7641 82.1164 90.8375 87.4921L88.6531 91.5036C87.8281 91.094 86.9141 90.8438 85.9375 90.8438H46.8344C47.8266 89.5082 48.4375 87.8634 48.4375 86.0625V78.0938H65.1328C65.6906 76.9 66.4437 75.8211 67.3594 74.9062H48.4375V71.7188H71.875C72.175 71.7188 72.4391 71.8287 72.6766 71.9785C73.4266 71.8112 74.2016 71.7188 75 71.7188C75.4406 71.7188 75.8734 71.7538 76.3016 71.8048C75.6781 69.9098 73.9406 68.5312 71.875 68.5312H48.4375V65.3438H54.6875V62.1562H48.4375V58.9688C50.1609 58.9688 51.5625 57.5392 51.5625 55.7812V52.5938C51.5625 50.8358 50.1609 49.4062 48.4375 49.4062H42.1875V39.8438V38.25V30.2812H43.75C54.8734 30.2812 57.8125 20.8988 57.8125 15.9375V14.3438H56.25C49.1063 14.3438 44.7391 16.8507 42.1875 19.9952V15.9375C42.1875 10.6096 38.5672 1.59375 25 1.59375H23.4375V3.1875C23.4375 8.14884 26.3766 17.5312 37.5 17.5312H39.0625V28.6875V29.5577C36.5109 26.4132 32.1437 23.9062 25 23.9062H23.4375V25.5C23.4375 30.4613 26.3766 39.8438 37.5 39.8438H39.0625V49.4062H32.8125C31.0891 49.4062 29.6875 50.8358 29.6875 52.5938V55.7812C29.6875 57.5392 31.0891 58.9688 32.8125 58.9688V62.1562H23.4375V58.9688C25.1609 58.9688 26.5625 57.5392 26.5625 55.7812V52.5938C26.5625 50.8358 25.1609 49.4062 23.4375 49.4062H7.8125C6.08906 49.4062 4.6875 50.8358 4.6875 52.5938V55.7812C4.6875 57.5392 6.08906 58.9688 7.8125 58.9688V62.1562H6.25C3.66562 62.1562 1.5625 64.3014 1.5625 66.9375V100.406H4.6875V66.9375C4.6875 66.0593 5.38906 65.3438 6.25 65.3438H7.8125V86.0625C7.8125 90.4565 11.3172 94.0312 15.625 94.0312C19.9328 94.0312 23.4375 90.4565 23.4375 86.0625V65.3438H32.8125V86.0625C32.8125 90.4565 36.3172 94.0312 40.625 94.0312C41.1656 94.0312 41.6937 93.9739 42.2031 93.8671C42.2016 93.9229 42.1875 93.9755 42.1875 94.0312V97.2188C42.1875 98.9767 43.5891 100.406 45.3125 100.406H89.0625C90.7859 100.406 92.1875 98.9767 92.1875 97.2188C92.1875 95.8784 91.775 94.6369 91.0797 93.6089L93.5687 89.0396C96.7531 83.1906 98.4375 76.5638 98.4375 69.8748C98.4375 59.3337 94.4125 49.4222 87.1047 41.9682L82.7391 37.5153ZM88.4156 4.78125L95.3125 11.8161C95.3125 13.2106 94.2016 14.3438 92.8344 14.3438L85.9375 7.30894C85.9375 5.91441 87.0484 4.78125 88.4156 4.78125ZM85.9375 11.8161L88.4156 14.3438L85.9375 16.8714L83.4594 14.3438L85.9375 11.8161ZM76.5625 15.0036C77.3844 14.1652 78.8656 14.1652 79.6875 15.0036L85.2906 20.7188C85.7016 21.1379 85.9375 21.7196 85.9375 22.3125C85.9375 22.9054 85.7016 23.4871 85.2906 23.9062L78.2891 31.0478C77.2859 30.5681 76.1781 30.2812 75 30.2812C70.6922 30.2812 67.1875 33.856 67.1875 38.25C67.1875 39.4517 67.4688 40.5817 67.9391 41.6048L64.0625 45.5589L55.3344 36.6562L76.5625 15.0036ZM57.8125 48.7464L52.2094 43.0312C51.7984 42.6121 51.5625 42.0304 51.5625 41.4375C51.5625 40.8446 51.7984 40.2629 52.2094 39.8438L53.125 38.9098L61.8531 47.8125L60.9375 48.7464C60.1156 49.5848 58.6344 49.5848 57.8125 48.7464ZM75 43.0312C72.4156 43.0312 70.3125 40.8861 70.3125 38.25C70.3125 35.6139 72.4156 33.4688 75 33.4688C77.5844 33.4688 79.6875 35.6139 79.6875 38.25C79.6875 40.8861 77.5844 43.0312 75 43.0312ZM54.5359 17.5886C54.0563 20.706 52.0578 27.0938 43.75 27.0938H42.3063C42.9641 22.6775 46.4422 18.148 54.5359 17.5886ZM37.5 14.3438C29.1906 14.3438 27.1938 7.95281 26.7141 4.83862C34.8078 5.39803 38.2875 9.92747 38.9453 14.3438H37.5ZM37.5 36.6562C29.1906 36.6562 27.1938 30.2653 26.7141 27.1511C34.8078 27.7105 38.2875 32.24 38.9453 36.6562H37.5ZM7.8125 52.5938H23.4375L23.4391 55.7812H7.8125V52.5938ZM10.9375 58.9688H20.3125V62.1562H10.9375V58.9688ZM20.3125 86.0625C20.3125 88.6986 18.2094 90.8438 15.625 90.8438C13.0406 90.8438 10.9375 88.6986 10.9375 86.0625V65.3438H20.3125V86.0625ZM32.8125 52.5938H48.4375L48.4391 55.7812H32.8125V52.5938ZM35.9375 58.9688H45.3125V62.1562H35.9375V58.9688ZM35.9375 86.0625V65.3438H45.3125V86.0625C45.3125 88.6986 43.2094 90.8438 40.625 90.8438C38.0406 90.8438 35.9375 88.6986 35.9375 86.0625ZM45.3125 97.2188V94.0312H85.9375C87.6609 94.0312 89.0625 95.4608 89.0641 97.2188H45.3125Z" fill="black"/>
<path d="M70.3125 82.875C70.3125 85.5111 72.4156 87.6562 75 87.6562C77.5844 87.6562 79.6875 85.5111 79.6875 82.875C79.6875 80.2389 77.5844 78.0938 75 78.0938C72.4156 78.0938 70.3125 80.2389 70.3125 82.875ZM76.5625 82.875C76.5625 83.7532 75.8609 84.4688 75 84.4688C74.1391 84.4688 73.4375 83.7532 73.4375 82.875C73.4375 81.9968 74.1391 81.2812 75 81.2812C75.8609 81.2812 76.5625 81.9968 76.5625 82.875Z" fill="black"/>
</svg>
