<svg width="100" height="100" viewBox="0 0 100 100" fill="none" xmlns="http://www.w3.org/2000/svg">
<path d="M75 7.8125H65.7516C61.85 11.2484 59.375 16.2672 59.375 21.875C59.375 24.6672 60.0016 27.3062 61.0969 29.6875H71.875C74.4594 29.6875 76.5625 27.5844 76.5625 25C76.5625 22.4156 74.4594 20.3125 71.875 20.3125H68.75C67.8875 20.3125 67.1875 19.6109 67.1875 18.75C67.1875 17.8891 67.8875 17.1875 68.75 17.1875H75C77.5844 17.1875 79.6875 15.0844 79.6875 12.5C79.6875 9.91562 77.5844 7.8125 75 7.8125Z" fill="#0097E6"/>
<path d="M96.875 21.875C96.875 21.3469 96.8391 20.8297 96.7969 20.3125H84.375C81.7906 20.3125 79.6875 22.4156 79.6875 25C79.6875 27.5844 81.7906 29.6875 84.375 29.6875H87.5C88.3625 29.6875 89.0625 30.3891 89.0625 31.25C89.0625 32.1109 88.3625 32.8125 87.5 32.8125H78.125C75.5406 32.8125 73.4375 34.9156 73.4375 37.5C73.4375 38.5266 73.7797 39.4703 74.3406 40.2422C75.5641 40.4937 76.8281 40.625 78.125 40.625C88.4797 40.625 96.875 32.2297 96.875 21.875Z" fill="#0097E6"/>
<path d="M90.5109 7.82336C87.9797 7.88586 85.9375 9.95461 85.9375 12.4999C85.9375 15.0843 88.0406 17.1874 90.625 17.1874H96.2609C95.3109 13.5046 93.2781 10.2656 90.5109 7.82336Z" fill="#0097E6"/>
<path d="M39.0625 29.6875H14.0625V20.3125H39.0625V29.6875Z" fill="#0097E6"/>
<path d="M96.1766 83.8406L81.6188 76.5625H53.0875C53.7781 75.65 54.2937 74.5984 54.5297 73.4375H89.0625C90.7859 73.4375 92.1875 72.0359 92.1875 70.3125V36.4984C96.0312 32.8 98.4375 27.6171 98.4375 21.875C98.4375 10.675 89.325 1.56245 78.125 1.56245C70.9531 1.56245 64.6516 5.30933 61.0359 10.9375H60.9375C55.9484 10.9375 51 12.4687 46.875 15.2687C42.75 12.4687 37.8016 10.9375 32.8125 10.9375H26.5625V0.957764L20.3125 3.04058L14.0625 0.957764V10.9375H10.9375C9.21406 10.9375 7.8125 12.339 7.8125 14.0625H4.6875C2.96406 14.0625 1.5625 15.464 1.5625 17.1875V70.3125C1.5625 72.0359 2.96406 73.4375 4.6875 73.4375H39.2203C39.4562 74.5984 39.9719 75.65 40.6625 76.5625H9.375C5.06719 76.5625 1.5625 80.0671 1.5625 84.375V90.625C1.5625 94.9328 5.06719 98.4375 9.375 98.4375H81.6188L96.1766 91.1593C97.5703 90.4609 98.4375 89.0578 98.4375 87.5C98.4375 85.9421 97.5703 84.539 96.1766 83.8406ZM79.6875 85.9375H23.4375V79.6875H79.6875V85.9375ZM20.3125 95.3125H17.1875V79.6875H20.3125V95.3125ZM23.4375 89.0625H79.6875V95.3125H23.4375V89.0625ZM82.8125 80.6531L89.0625 83.7781V91.2203L82.8125 94.3453V80.6531ZM78.125 4.68745C87.6016 4.68745 95.3125 12.3984 95.3125 21.875C95.3125 31.3515 87.6016 39.0625 78.125 39.0625C68.6484 39.0625 60.9375 31.3515 60.9375 21.875C60.9375 12.3984 68.6484 4.68745 78.125 4.68745ZM70.3125 40.6203V42.1875H57.8125V32.8125H61.0359C63.2562 36.2687 66.4828 39.0187 70.3125 40.6203ZM67.1875 45.3125H73.4375V41.6203C74.4531 41.8609 75.4953 42.0265 76.5625 42.1093V53.125H67.1875V45.3125ZM59.3797 29.6875H54.6875V45.3125H64.0625V56.25H79.6875V42.1078C80.7547 42.0265 81.7969 41.8609 82.8125 41.6187V60.9375H60.9375C56.5625 60.9375 52.2203 62.114 48.4375 64.2906V18.0078C51.6531 15.7703 55.4531 14.4156 59.3562 14.1281C58.3656 16.5171 57.8125 19.1312 57.8125 21.875C57.8125 24.6421 58.3734 27.2812 59.3797 29.6875ZM17.1875 5.29214L20.3125 6.33433L23.4375 5.29214V10.9375H17.1875V5.29214ZM10.9375 14.0625H32.8125C37.2609 14.0625 41.6625 15.4687 45.3125 18.0078V64.2921C41.5297 62.114 37.1875 60.9375 32.8125 60.9375H10.9375V14.0625ZM42.1875 71.875V70.3125H4.6875V17.1875H7.8125V60.9375C7.8125 62.6609 9.21406 64.0625 10.9375 64.0625H32.8125C37.5141 64.0625 42.175 65.6156 45.9375 68.4375L46.875 69.1406L47.8125 68.4375C51.575 65.6156 56.2375 64.0625 60.9375 64.0625H82.8125C84.5359 64.0625 85.9375 62.6609 85.9375 60.9375V40.6203C87.0328 40.1625 88.0734 39.5984 89.0625 38.964V70.3125H51.5625V71.875C51.5625 74.4593 49.4594 76.5625 46.875 76.5625C44.2906 76.5625 42.1875 74.4593 42.1875 71.875ZM4.6875 90.625V84.375C4.6875 81.7906 6.79063 79.6875 9.375 79.6875H14.0625V95.3125H9.375C6.79063 95.3125 4.6875 93.2093 4.6875 90.625ZM94.7781 88.364L92.1875 89.6593V85.3421L94.7766 86.6375C95.1078 86.8015 95.3125 87.1328 95.3125 87.5C95.3125 87.8671 95.1078 88.1984 94.7781 88.364Z" fill="black"/>
<path d="M14.0625 32.8125H39.0625V35.9375H14.0625V32.8125Z" fill="black"/>
<path d="M39.0625 54.6875V42.1875H23.4375V39.0625H14.0625V48.4375H17.1875V54.6875H39.0625ZM35.9375 45.3125V51.5625H20.3125V48.4375H23.4375V45.3125H35.9375ZM17.1875 42.1875H20.3125V45.3125H17.1875V42.1875Z" fill="black"/>
<path d="M54.6875 48.4375H60.9375V51.5625H54.6875V48.4375Z" fill="black"/>
<path d="M54.6875 53.125H60.9375V56.25H54.6875V53.125Z" fill="black"/>
</svg>
