<svg width="100" height="100" viewBox="0 0 100 100" fill="none" xmlns="http://www.w3.org/2000/svg">
<path d="M20.3125 29.6875H67.1875V51.5625H20.3125V29.6875Z" fill="#0097E6"/>
<path d="M79.6875 79.6875C72.7953 79.6875 67.1875 74.0797 67.1875 67.1875C67.1875 60.2953 72.7953 54.6875 79.6875 54.6875C86.5797 54.6875 92.1875 60.2953 92.1875 67.1875C92.1875 74.0797 86.5797 79.6875 79.6875 79.6875ZM79.6875 62.5C77.1031 62.5 75 64.6031 75 67.1875C75 69.7719 77.1031 71.875 79.6875 71.875C82.2719 71.875 84.375 69.7719 84.375 67.1875C84.375 64.6031 82.2719 62.5 79.6875 62.5Z" fill="#0097E6"/>
<path d="M93.75 7.8125H10.9375C5.76719 7.8125 1.5625 12.0172 1.5625 17.1875V82.8125C1.5625 87.9828 5.76719 92.1875 10.9375 92.1875C14.3844 92.1875 17.1875 89.3844 17.1875 85.9375H93.75C96.3344 85.9375 98.4375 83.8344 98.4375 81.25V12.5C98.4375 9.91562 96.3344 7.8125 93.75 7.8125ZM95.3125 32.1656L74.0844 10.9375H79.0406L95.3125 27.2094V32.1656ZM95.3125 12.5V22.7906L83.4594 10.9375H93.75C94.6109 10.9375 95.3125 11.6391 95.3125 12.5ZM10.9375 89.0625C7.49062 89.0625 4.6875 86.2594 4.6875 82.8125V24.1562C6.34844 25.6469 8.53438 26.5625 10.9375 26.5625C12.0813 26.5625 13.1391 26.2313 14.0625 25.6938V85.9375C14.0625 87.6609 12.6609 89.0625 10.9375 89.0625ZM10.9375 23.4375V17.1875C12.6609 17.1875 14.0625 18.5891 14.0625 20.3125C14.0625 22.0359 12.6609 23.4375 10.9375 23.4375ZM93.75 82.8125H17.1875V20.3125C17.1875 16.8656 14.3844 14.0625 10.9375 14.0625H7.8125V22.5984C5.94531 21.5172 4.6875 19.4969 4.6875 17.1875C4.6875 13.7406 7.49062 10.9375 10.9375 10.9375H69.6656L95.3125 36.5844V81.25C95.3125 82.1109 94.6109 82.8125 93.75 82.8125Z" fill="black"/>
<path d="M20.3125 20.3125H64.0625V23.4375H20.3125V26.5625H67.1875V17.1875H20.3125V20.3125Z" fill="black"/>
<path d="M20.3125 29.6875H29.6875V32.8125H20.3125V29.6875Z" fill="black"/>
<path d="M32.8125 29.6875H67.1875V32.8125H32.8125V29.6875Z" fill="black"/>
<path d="M20.3125 35.9375H67.1875V39.0625H20.3125V35.9375Z" fill="black"/>
<path d="M82.8125 32.8125H70.3125V45.3125H73.4375V51.5625H92.1875V39.0625H82.8125V32.8125ZM73.4375 35.9375H79.6875V42.1875H73.4375V35.9375ZM89.0625 42.1875V48.4375H76.5625V45.3125H82.8125V42.1875H89.0625Z" fill="black"/>
<path d="M20.3125 42.1875H67.1875V45.3125H20.3125V42.1875Z" fill="black"/>
<path d="M64.0625 48.4375H67.1875V51.5625H64.0625V48.4375Z" fill="black"/>
<path d="M57.8125 48.4375H60.9375V51.5625H57.8125V48.4375Z" fill="black"/>
<path d="M51.5625 48.4375H54.6875V51.5625H51.5625V48.4375Z" fill="black"/>
<path d="M20.3125 48.4375H48.4375V51.5625H20.3125V48.4375Z" fill="black"/>
<path d="M79.6875 60.9375C76.2406 60.9375 73.4375 63.7406 73.4375 67.1875C73.4375 70.6344 76.2406 73.4375 79.6875 73.4375C83.1344 73.4375 85.9375 70.6344 85.9375 67.1875C85.9375 63.7406 83.1344 60.9375 79.6875 60.9375ZM79.6875 70.3125C77.9641 70.3125 76.5625 68.9109 76.5625 67.1875C76.5625 65.4641 77.9641 64.0625 79.6875 64.0625C81.4109 64.0625 82.8125 65.4641 82.8125 67.1875C82.8125 68.9109 81.4109 70.3125 79.6875 70.3125Z" fill="black"/>
<path d="M54.1891 64.0625C52.6953 64.0625 51.2625 64.6109 50.1531 65.5609L48.0453 61.3453C46.9547 59.1656 44.7641 57.8125 42.3281 57.8125C38.8047 57.8125 35.9375 60.6797 35.9375 64.2031V70.4625C35.9375 73.8266 33.2016 76.5625 29.8391 76.5625H25V79.6875H29.8391C34.925 79.6875 39.0625 75.55 39.0625 70.4641V64.2031C39.0625 62.4016 40.5281 60.9375 42.3281 60.9375C43.5734 60.9375 44.6922 61.6297 45.2484 62.7422L48.0766 68.3969L46.0578 71.7609C45.5703 72.575 45.3125 73.5063 45.3125 74.4547C45.3125 77.3406 47.6594 79.6875 50.5969 79.6875C52.8531 79.6875 54.6875 77.8531 54.6875 75.5969C54.6875 74.9656 54.5375 74.3328 54.2563 73.7672L51.6422 68.5391C52.2109 67.7016 53.1703 67.1875 54.1891 67.1875C55.6828 67.1875 57.0031 68.1391 57.4766 69.5563L61.0187 80.1813L63.9828 79.1922L60.4406 68.5672C59.5422 65.8734 57.0297 64.0625 54.1891 64.0625ZM50.5453 76.5625C49.3828 76.5625 48.4375 75.6172 48.4375 74.4547C48.4375 74.0719 48.5406 73.6969 48.7375 73.3703L49.7328 71.7109L51.4594 75.1641C51.5281 75.2984 51.5625 75.4484 51.5625 75.5969C51.5625 76.1297 51.1297 76.5625 50.5453 76.5625Z" fill="black"/>
</svg>
