<svg width="15" height="15" viewBox="0 0 15 15" fill="none" xmlns="http://www.w3.org/2000/svg">
<path d="M12.479 2.60804C11.3339 0.950713 9.51904 0 7.50016 0C5.48129 0 3.66643 0.950713 2.52131 2.60804C1.3818 4.25698 1.11869 6.34459 1.81607 8.18897C2.0026 8.69265 2.29912 9.18199 2.69527 9.64055L7.10088 14.8154C7.20052 14.9325 7.3465 15 7.50016 15C7.65383 15 7.79981 14.9325 7.89945 14.8154L12.3038 9.64195C12.7017 9.18076 12.9979 8.69194 13.1829 8.19232C13.8816 6.34459 13.6185 4.25698 12.479 2.60804ZM12.2007 7.82499C12.0581 8.21048 11.8252 8.5916 11.5089 8.95819C11.508 8.95907 11.5072 8.95995 11.5065 8.96101L7.50016 13.6666L3.49141 8.95805C3.17533 8.59178 2.94245 8.21068 2.7984 7.8215C2.22166 6.29616 2.44053 4.57011 3.38407 3.20455C4.33056 1.83463 5.83092 1.04895 7.50016 1.04895C9.16938 1.04895 10.6696 1.8346 11.6161 3.20455C12.5598 4.57011 12.7788 6.29616 12.2007 7.82499Z" fill="white"/>
<path d="M7.50018 3.11182C5.88077 3.11182 4.56311 4.4293 4.56311 6.04889C4.56311 7.66848 5.88059 8.98596 7.50018 8.98596C9.11977 8.98596 10.4373 7.66848 10.4373 6.04889C10.4373 4.42947 9.1196 3.11182 7.50018 3.11182ZM7.50018 7.93698C6.45909 7.93698 5.61206 7.08995 5.61206 6.04886C5.61206 5.00776 6.45909 4.16073 7.50018 4.16073C8.54128 4.16073 9.38831 5.00776 9.38831 6.04886C9.38831 7.08995 8.54128 7.93698 7.50018 7.93698Z" fill="white"/>
</svg>
