<svg width="15" height="15" viewBox="0 0 15 15" fill="none" xmlns="http://www.w3.org/2000/svg">
<path d="M6.01267 15H8.98702C10.0717 15 11.6813 14.1317 11.6813 12.9321V2.1932C11.6813 1.0865 10.5329 0 9.36282 0H5.63713C4.46704 0 3.31866 1.08623 3.31866 2.1932V12.9321C3.31893 14.1315 4.92794 15 6.01267 15ZM6.26624 13.5599C5.18732 13.442 4.6567 13.1725 4.46324 13.0495C4.61428 12.9621 5.05624 12.7919 6.26624 12.725V13.5599ZM8.12531 13.5986C7.6838 13.6249 7.19157 13.6244 6.74911 13.597V12.706C6.96428 12.6995 7.19741 12.696 7.45299 12.696C7.69721 12.696 7.92073 12.6992 8.12531 12.7053V13.5986ZM8.61022 13.5619V12.7235C9.86313 12.7927 10.2129 12.976 10.3026 13.0402C10.1644 13.1518 9.71208 13.4402 8.61022 13.5619ZM6.18466 0.783667C6.19651 0.750839 6.22506 0.727095 6.26016 0.722051C6.27833 0.719277 6.7198 0.656129 7.41786 0.656129C7.82676 0.656129 8.23867 0.678103 8.64225 0.721549C8.67785 0.725352 8.70791 0.748831 8.72077 0.782162C8.73366 0.815255 8.72661 0.852891 8.7026 0.879407C8.68543 0.898608 8.26846 1.34892 7.4532 1.34892C6.63845 1.34892 6.221 0.898608 6.2038 0.879407C6.17987 0.853393 6.17303 0.816523 6.18466 0.783667ZM4.25892 2.65259C4.25892 2.60032 4.30134 2.55788 4.35363 2.55788H10.5521C10.6044 2.55788 10.6468 2.6003 10.6468 2.65259V11.1059C10.6468 11.1581 10.6044 11.2006 10.5521 11.2006H4.35363C4.30137 11.2006 4.25892 11.1581 4.25892 11.1059V2.65259Z" fill="white"/>
</svg>
