<svg width="100" height="100" viewBox="0 0 100 100" fill="none" xmlns="http://www.w3.org/2000/svg">
<path d="M57.8125 57.8125H45.3125H42.1875H14.0625V73.4375H57.8125V57.8125Z" fill="#0097E6"/>
<path d="M68.0531 39.0625C65.8531 39.0625 64.0625 37.2719 64.0625 35.0703V21.1781C64.0625 18.9781 65.8531 17.1875 68.0531 17.1875C68.8016 17.1875 69.5328 17.3969 70.1688 17.7937L80.7531 24.4094C82.0422 25.2156 82.8125 26.6047 82.8125 28.125C82.8125 29.6453 82.0422 31.0344 80.7531 31.8406L70.1688 38.4547C69.5328 38.8531 68.8016 39.0625 68.0531 39.0625Z" fill="#0097E6"/>
<path d="M34.375 82.8125C31.7906 82.8125 29.6875 84.9156 29.6875 87.5C29.6875 90.0844 31.7906 92.1875 34.375 92.1875C36.9594 92.1875 39.0625 90.0844 39.0625 87.5C39.0625 84.9156 36.9594 82.8125 34.375 82.8125ZM34.375 89.0625C33.5141 89.0625 32.8125 88.3625 32.8125 87.5C32.8125 86.6375 33.5141 85.9375 34.375 85.9375C35.2359 85.9375 35.9375 86.6375 35.9375 87.5C35.9375 88.3625 35.2359 89.0625 34.375 89.0625Z" fill="black"/>
<path d="M54.6875 70.3125H57.8125V73.4375H54.6875V70.3125Z" fill="black"/>
<path d="M48.4375 70.3125H51.5625V73.4375H48.4375V70.3125Z" fill="black"/>
<path d="M42.1875 70.3125H45.3125V73.4375H42.1875V70.3125Z" fill="black"/>
<path d="M14.0625 70.3125H39.0625V73.4375H14.0625V70.3125Z" fill="black"/>
<path d="M14.0625 64.0625H57.8125V67.1875H14.0625V64.0625Z" fill="black"/>
<path d="M45.3125 57.8125H57.8125V60.9375H45.3125V57.8125Z" fill="black"/>
<path d="M14.0625 57.8125H42.1875V60.9375H14.0625V57.8125Z" fill="black"/>
<path d="M98.4375 43.75V12.5C98.4375 9.91562 96.3344 7.8125 93.75 7.8125H70.3125C70.3125 4.36562 67.5094 1.5625 64.0625 1.5625H7.8125C4.36562 1.5625 1.5625 4.36562 1.5625 7.8125V92.1875C1.5625 95.6344 4.36562 98.4375 7.8125 98.4375H64.0625C66.3797 98.4375 68.3844 97.1547 69.4625 95.2766C85.5016 94.8922 98.4375 81.7547 98.4375 65.625C98.4375 59.4219 96.4891 53.4375 92.9328 48.4375H93.75C96.3344 48.4375 98.4375 46.3344 98.4375 43.75ZM93.75 10.9375C94.6109 10.9375 95.3125 11.6375 95.3125 12.5V43.75C95.3125 44.6125 94.6109 45.3125 93.75 45.3125H68.1031L62.0438 51.3719C61.6672 51.75 60.9375 51.4422 60.9375 50.9156V45.3125H53.125C52.2641 45.3125 51.5625 44.6125 51.5625 43.75V12.5C51.5625 11.6375 52.2641 10.9375 53.125 10.9375H93.75ZM95.2406 64.0625H82.7625C82.6406 60.8453 82.1437 57.7141 81.275 54.6875H92.9328C94.2625 57.6281 95.0484 60.7984 95.2406 64.0625ZM70.3125 79.6875H76.8516C74.8594 84.4109 72.2328 87.8828 70.3125 90.0188V79.6875ZM70.3125 76.5625V67.1875H79.6219C79.475 70.6422 78.8766 73.7781 77.9938 76.5625H70.3125ZM82.7484 67.1875H95.2344C95.0391 70.5141 94.2422 73.6734 92.9297 76.5625H81.2781C82.0813 73.7469 82.6172 70.6203 82.7484 67.1875ZM79.6391 64.0625H70.3125V54.6875H78.0141C78.9641 57.7031 79.5063 60.8344 79.6391 64.0625ZM70.3125 51.5625V48.4375H75.3719C75.9219 49.4625 76.4281 50.5031 76.8734 51.5625H70.3125ZM32.8125 42.1875V51.5625H17.1875V35.9375H23.4375V42.1875H32.8125ZM26.5625 39.0625V30.5234L29.6875 32.6063V20.3125H42.1875V39.0625H26.5625ZM26.5625 26.7687L20.3125 22.6016V14.0625H17.1875V22.6016L10.9375 26.7687V10.9375H26.5625V26.7687ZM10.9375 30.5234L18.75 25.3156L23.4375 28.4406V32.8125H14.0625V54.6875H35.9375V42.1875H45.3125V17.1875H29.6875V10.9375H48.7047C48.5328 11.4266 48.4375 11.9516 48.4375 12.5V43.75C48.4375 46.3344 50.5406 48.4375 53.125 48.4375H57.8125V50.9156C57.8125 52.775 59.1641 54.325 60.9375 54.6328V76.5625H10.9375V30.5234ZM64.0625 95.3125H7.8125C6.08906 95.3125 4.6875 93.9109 4.6875 92.1875V7.8125C4.6875 6.08906 6.08906 4.6875 7.8125 4.6875H64.0625C65.7859 4.6875 67.1875 6.08906 67.1875 7.8125H10.9375C9.21406 7.8125 7.8125 9.21406 7.8125 10.9375V76.5625C7.8125 78.2859 9.21406 79.6875 10.9375 79.6875H60.9375C62.6609 79.6875 64.0625 78.2859 64.0625 76.5625V53.7594C64.1281 53.7031 64.1906 53.6437 64.2516 53.5828L67.1875 50.6469V92.1875C67.1875 93.9109 65.7859 95.3125 64.0625 95.3125ZM72.9359 91.825C75.1953 89.2797 78.1516 85.1969 80.2453 79.6875H91.2438C87.25 86.0516 80.6469 90.5953 72.9359 91.825ZM91.2734 51.5625H80.2328C79.8297 50.5078 79.3969 49.4625 78.9 48.4375H88.975C89.8172 49.4297 90.5906 50.4703 91.2734 51.5625Z" fill="black"/>
<path d="M39.0625 51.5625H54.6875V54.6875H39.0625V51.5625Z" fill="black"/>
<path d="M39.0625 45.3125H45.3125V48.4375H39.0625V45.3125Z" fill="black"/>
</svg>
