<svg width="100" height="100" viewBox="0 0 100 100" fill="none" xmlns="http://www.w3.org/2000/svg">
<path d="M59.375 76.5625H81.25V60.9375H75H71.875H59.375V76.5625Z" fill="#0097E6"/>
<path d="M23.4375 54.6875H45.3125V39.0625H39.0625H35.9375H23.4375V54.6875Z" fill="#0097E6"/>
<path d="M83.1047 46.8703L90.2594 35.625C90.875 35.825 91.5234 35.9375 92.1875 35.9375C95.6344 35.9375 98.4375 33.1344 98.4375 29.6875C98.4375 26.2406 95.6344 23.4375 92.1875 23.4375C88.7406 23.4375 85.9375 26.2406 85.9375 29.6875C85.9375 31.3078 86.55 32.8234 87.6172 33.9594L80.3922 45.3125H60.2281L47.2047 25.0547L55.5266 13.6125C56.2437 13.8969 57.0109 14.0625 57.8125 14.0625C61.2594 14.0625 64.0625 11.2594 64.0625 7.8125C64.0625 4.36562 61.2594 1.5625 57.8125 1.5625C54.3656 1.5625 51.5625 4.36562 51.5625 7.8125C51.5625 9.28906 52.0891 10.6969 52.9922 11.7859L44.5172 23.4375H29.4656C28.7672 20.7484 26.3422 18.75 23.4375 18.75C19.9906 18.75 17.1875 21.5531 17.1875 25C17.1875 26.6031 17.7922 28.1078 18.8516 29.2437L12.1875 39.6109C11.2937 39.2625 10.3469 39.0625 9.375 39.0625C5.06719 39.0625 1.5625 42.5672 1.5625 46.875C1.5625 51.1828 5.06719 54.6875 9.375 54.6875C10.3484 54.6875 11.2969 54.4875 12.1891 54.1406L21.5453 68.6953L13.2234 80.1375C12.5063 79.8531 11.7391 79.6875 10.9375 79.6875C7.49062 79.6875 4.6875 82.4906 4.6875 85.9375C4.6875 89.3844 7.49062 92.1875 10.9375 92.1875C14.3844 92.1875 17.1875 89.3844 17.1875 85.9375C17.1875 84.4609 16.6609 83.0531 15.7578 81.9641L24.2328 70.3125H44.4594L55.6938 87.7875C55.0719 88.5969 54.6875 89.5859 54.6875 90.625C54.6875 93.2094 56.7906 95.3125 59.375 95.3125C61.4094 95.3125 63.1281 94.0016 63.775 92.1875H73.5953C74.3219 95.7484 77.4766 98.4375 81.25 98.4375C85.5578 98.4375 89.0625 94.9328 89.0625 90.625C89.0625 88.4844 88.1891 86.4953 86.6937 85.0453L97.1687 68.75L83.1047 46.8703ZM92.1875 26.5625C93.9109 26.5625 95.3125 27.9641 95.3125 29.6875C95.3125 31.4109 93.9109 32.8125 92.1875 32.8125C91.5813 32.8125 91.0062 32.6469 90.5062 32.3203C89.6031 31.7484 89.0625 30.7641 89.0625 29.6875C89.0625 27.9641 90.4641 26.5625 92.1875 26.5625ZM57.8125 4.6875C59.5359 4.6875 60.9375 6.08906 60.9375 7.8125C60.9375 9.53594 59.5359 10.9375 57.8125 10.9375C57.1406 10.9375 56.5172 10.7328 55.9641 10.3188C55.1656 9.75156 54.6875 8.81563 54.6875 7.8125C54.6875 6.08906 56.0891 4.6875 57.8125 4.6875ZM29.4656 26.5625H44.4594L57.5172 46.875L44.4594 67.1875H24.2906L14.8188 52.4531C16.3156 51.0016 17.1875 49.0125 17.1875 46.875C17.1875 44.7344 16.3141 42.7453 14.8188 41.2953L21.4875 30.9203C22.1172 31.1312 22.7719 31.25 23.4375 31.25C26.3422 31.25 28.7672 29.2516 29.4656 26.5625ZM23.4375 21.875C25.1609 21.875 26.5625 23.2766 26.5625 25C26.5625 26.7234 25.1609 28.125 23.4375 28.125C22.8391 28.125 22.2719 27.9562 21.7469 27.6203C20.8484 27.0469 20.3125 26.0688 20.3125 25C20.3125 23.2766 21.7141 21.875 23.4375 21.875ZM4.6875 46.875C4.6875 44.2906 6.79063 42.1875 9.375 42.1875C10.2734 42.1875 11.1469 42.4453 11.9078 42.9391C13.2562 43.8031 14.0625 45.275 14.0625 46.875C14.0625 48.475 13.2562 49.9469 11.8984 50.8141C11.1469 51.3047 10.2734 51.5625 9.375 51.5625C6.79063 51.5625 4.6875 49.4594 4.6875 46.875ZM10.9375 89.0625C9.21406 89.0625 7.8125 87.6609 7.8125 85.9375C7.8125 84.2141 9.21406 82.8125 10.9375 82.8125C11.6094 82.8125 12.2328 83.0172 12.7859 83.4313C13.5844 83.9984 14.0625 84.9344 14.0625 85.9375C14.0625 87.6609 12.6609 89.0625 10.9375 89.0625ZM59.375 92.1875C58.5125 92.1875 57.8125 91.4875 57.8125 90.625C57.8125 90.0984 58.0859 89.5984 58.5625 89.2937C58.7906 89.1406 59.0641 89.0625 59.375 89.0625C60.2375 89.0625 60.9375 89.7625 60.9375 90.625C60.9375 91.4875 60.2375 92.1875 59.375 92.1875ZM73.5953 89.0625H63.775C63.1281 87.2484 61.4094 85.9375 59.375 85.9375C59.0062 85.9375 58.65 85.9906 58.3031 86.0703L47.1703 68.75L60.2281 48.4375H80.3969L93.4547 68.75L84.0625 83.3609C83.1687 83.0125 82.2219 82.8125 81.25 82.8125C77.4781 82.8125 74.3219 85.5016 73.5953 89.0625ZM81.25 95.3125C78.6656 95.3125 76.5625 93.2094 76.5625 90.625C76.5625 88.0406 78.6656 85.9375 81.25 85.9375C82.1484 85.9375 83.0219 86.1953 83.7828 86.6891C85.1312 87.5531 85.9375 89.025 85.9375 90.625C85.9375 93.2094 83.8344 95.3125 81.25 95.3125Z" fill="black"/>
<path d="M23.4375 39.0625H35.9375V42.1875H23.4375V39.0625Z" fill="black"/>
<path d="M39.0625 39.0625H45.3125V42.1875H39.0625V39.0625Z" fill="black"/>
<path d="M23.4375 45.3125H45.3125V48.4375H23.4375V45.3125Z" fill="black"/>
<path d="M42.1875 51.5625H45.3125V54.6875H42.1875V51.5625Z" fill="black"/>
<path d="M35.9375 51.5625H39.0625V54.6875H35.9375V51.5625Z" fill="black"/>
<path d="M23.4375 51.5625H32.8125V54.6875H23.4375V51.5625Z" fill="black"/>
<path d="M59.375 60.9375H71.875V64.0625H59.375V60.9375Z" fill="black"/>
<path d="M75 60.9375H81.25V64.0625H75V60.9375Z" fill="black"/>
<path d="M59.375 67.1875H81.25V70.3125H59.375V67.1875Z" fill="black"/>
<path d="M78.125 73.4375H81.25V76.5625H78.125V73.4375Z" fill="black"/>
<path d="M71.875 73.4375H75V76.5625H71.875V73.4375Z" fill="black"/>
<path d="M59.375 73.4375H68.75V76.5625H59.375V73.4375Z" fill="black"/>
</svg>
