<svg width="100" height="100" viewBox="0 0 100 100" fill="none" xmlns="http://www.w3.org/2000/svg">
<path d="M14.0625 67.1875H9.375V54.6875H14.0625C15.7859 54.6875 17.1875 56.0891 17.1875 57.8125V64.0625C17.1875 65.7859 15.7859 67.1875 14.0625 67.1875Z" fill="#0097E6"/>
<path d="M31.25 67.1875H23.4375C21.7141 67.1875 20.3125 65.7859 20.3125 64.0625V57.8125C20.3125 56.0891 21.7141 54.6875 23.4375 54.6875H31.25V67.1875Z" fill="#0097E6"/>
<path d="M90.625 67.1875H85.9375C84.2141 67.1875 82.8125 65.7859 82.8125 64.0625V57.8125C82.8125 56.0891 84.2141 54.6875 85.9375 54.6875H90.625V67.1875Z" fill="#0097E6"/>
<path d="M76.5625 67.1875H68.75V54.6875H76.5625C78.2859 54.6875 79.6875 56.0891 79.6875 57.8125V64.0625C79.6875 65.7859 78.2859 67.1875 76.5625 67.1875Z" fill="#0097E6"/>
<path d="M60.9375 64.0625H39.0625C37.3391 64.0625 35.9375 62.6609 35.9375 60.9375V51.5625C35.9375 49.8391 37.3391 48.4375 39.0625 48.4375H60.9375C62.6609 48.4375 64.0625 49.8391 64.0625 51.5625V60.9375C64.0625 62.6609 62.6609 64.0625 60.9375 64.0625Z" fill="#0097E6"/>
<path d="M44.8547 23.8953L42.6453 26.1046L45.7828 29.2421C45.4891 29.8531 45.3125 30.5281 45.3125 31.2499C45.3125 33.8343 47.4156 35.9374 50 35.9374C52.5844 35.9374 54.6875 33.8343 54.6875 31.2499C54.6875 30.5281 54.5109 29.8531 54.2172 29.2421L55.7922 27.6671L53.5828 25.4578L52.0078 27.0328C51.3969 26.739 50.7219 26.5624 50 26.5624C49.2781 26.5624 48.6031 26.739 47.9922 27.0328L44.8547 23.8953ZM50 29.6874C50.8609 29.6874 51.5625 30.3874 51.5625 31.2499C51.5625 32.1124 50.8609 32.8124 50 32.8124C49.1391 32.8124 48.4375 32.1124 48.4375 31.2499C48.4375 30.3874 49.1391 29.6874 50 29.6874Z" fill="black"/>
<path d="M57.8125 48.4375H54.6875V54.6875H51.5625V48.4375H48.4375V54.6875H45.3125V48.4375H42.1875V54.6875H35.9375V57.8125H42.1875V64.0625H45.3125V57.8125H48.4375V64.0625H51.5625V57.8125H54.6875V64.0625H57.8125V57.8125H64.0625V54.6875H57.8125V48.4375Z" fill="black"/>
<path d="M95.3125 51.5625C97.0359 51.5625 98.4375 50.1609 98.4375 48.4375V44.3969C98.4375 43.575 98.1047 42.7687 97.5219 42.1875L89.0625 33.7281C88.4719 33.1375 87.6875 32.8125 86.8531 32.8125H70.3125V25.5406C70.3125 24.8422 70.075 24.1562 69.6437 23.6109L53.7562 3.3875C52.8438 2.22812 51.475 1.5625 50 1.5625C48.525 1.5625 47.1562 2.22812 46.2438 3.3875L30.3578 23.6078C29.925 24.1562 29.6875 24.8406 29.6875 25.5406V32.8125H13.1469C12.3125 32.8125 11.5281 33.1375 10.9375 33.7281L2.47812 42.1875C1.89531 42.7687 1.5625 43.575 1.5625 44.3969V48.4375C1.5625 50.1609 2.96406 51.5625 4.6875 51.5625H7.8125V70.3125H4.6875C2.96406 70.3125 1.5625 71.7141 1.5625 73.4375V76.5625C1.5625 78.2859 2.96406 79.6875 4.6875 79.6875V98.4375H95.3125V79.6875C97.0359 79.6875 98.4375 78.2859 98.4375 76.5625V73.4375C98.4375 71.7141 97.0359 70.3125 95.3125 70.3125H92.1875V51.5625H95.3125ZM70.3125 48.4375V45.3125H95.3125V48.4375H70.3125ZM78.9609 42.1875L74.7937 35.9375H78.9547L84.1625 42.1875H78.9609ZM93.1031 42.1875H88.2328L83.025 35.9375H86.8547L93.1031 42.1875ZM71.0391 35.9375L75.2063 42.1875H70.3125V35.9375H71.0391ZM85.9375 79.6875V95.3125H82.8125V79.6875H85.9375ZM79.6875 95.3125H76.5625V79.6875H79.6875V95.3125ZM73.4375 95.3125H70.3125V79.6875H73.4375V95.3125ZM39.0625 76.5625V73.4375H60.9375L60.9391 76.5625H39.0625ZM48.4375 79.6875V95.3125H42.1875V79.6875H48.4375ZM51.5625 79.6875H57.8125V95.3125H51.5625V79.6875ZM60.9375 79.6875C62.6609 79.6875 64.0625 78.2859 64.0625 76.5625V73.4375C64.0625 71.7141 62.6609 70.3125 60.9375 70.3125H39.0625C37.3391 70.3125 35.9375 71.7141 35.9375 73.4375V76.5625C35.9375 78.2859 37.3391 79.6875 39.0625 79.6875V95.3125H32.8125V26.5625H36.7578C36.2359 28.0312 35.9375 29.6047 35.9375 31.25C35.9375 39.0047 42.2469 45.3125 50 45.3125C57.7531 45.3125 64.0625 39.0047 64.0625 31.25C64.0625 29.6047 63.7641 28.0312 63.2422 26.5625H67.1875V95.3125H60.9375V79.6875ZM17.1875 79.6875V95.3125H14.0625V79.6875H17.1875ZM20.3125 79.6875H23.4375V95.3125H20.3125V79.6875ZM26.5625 79.6875H29.6875V95.3125H26.5625V79.6875ZM51.5625 23.4375V20.4375C56.3422 21.1266 60.1234 24.9078 60.8125 29.6875H57.8125V32.8125H60.8125C60.1234 37.5922 56.3422 41.3734 51.5625 42.0625V39.0625H48.4375V42.0625C43.6578 41.3734 39.8766 37.5922 39.1875 32.8125H42.1875V29.6875H39.1875C39.8766 24.9078 43.6578 21.1266 48.4375 20.4375V23.4375H51.5625ZM48.7 5.31875C49.3312 4.51562 50.6672 4.51562 51.2984 5.31875L65.5359 23.4375H61.6859C59.1594 19.6719 54.8656 17.1875 50.0016 17.1875C45.1375 17.1875 40.8422 19.6719 38.3172 23.4375H34.4672L48.7 5.31875ZM29.6875 42.1875H24.7938L28.9609 35.9375H29.6875V42.1875ZM15.8359 42.1875L21.0438 35.9375H25.2047L21.0375 42.1875H15.8359ZM13.1469 35.9375H16.9766L11.7688 42.1875H6.89687L13.1469 35.9375ZM4.6875 45.3125H29.6875V48.4375H4.6875V45.3125ZM10.9375 51.5625H29.6875V70.3125H10.9375V51.5625ZM4.6875 73.4375H29.6875V76.5625H4.6875V73.4375ZM7.8125 79.6875H10.9375V95.3125H7.8125V79.6875ZM92.1875 95.3125H89.0625V79.6875H92.1875V95.3125ZM95.3125 76.5625H70.3125V73.4375H95.3125V76.5625ZM89.0625 70.3125H70.3125V51.5625H89.0625V70.3125Z" fill="black"/>
</svg>
