<svg width="15" height="15" viewBox="0 0 15 15" fill="none" xmlns="http://www.w3.org/2000/svg">
<g clip-path="url(#clip0)">
<path d="M14.0442 0H0.957942C0.428692 0 0 0.428692 0 0.956884V14.0431C0 14.5713 0.428692 15 0.957942 15H14.0431C14.5713 15 15 14.5713 15 14.0431V0.956884C15.0011 0.427634 14.5724 0 14.0442 0ZM12.4427 9.14015C12.7168 9.41959 13.3117 9.88851 13.2037 10.3659C13.1042 10.8041 12.4501 10.6443 11.815 10.6697C11.0899 10.7004 10.6602 10.7163 10.2241 10.3659C10.0187 10.1997 9.89803 10.0028 9.70115 9.78265C9.52226 9.58366 9.2968 9.22694 8.98984 9.2407C8.43836 9.26822 8.6109 10.0367 8.41507 10.5607C5.34966 11.0433 4.11862 9.14967 3.0326 7.31212C2.50653 6.42192 1.74652 4.51027 1.74652 4.51027L3.91433 4.50286C3.91433 4.50286 4.60977 5.76777 4.79395 6.09378C4.9506 6.37111 5.12314 6.59128 5.30097 6.83897C5.45022 7.04432 5.68626 7.44655 5.94454 7.41373C6.36476 7.35975 6.44097 5.72966 6.18058 5.18347C6.07685 4.96225 5.8281 4.88498 5.57088 4.80982C5.65768 4.26152 8.00226 4.1472 8.3812 4.57272C8.93162 5.19088 8.00014 6.912 8.75379 7.41373C9.81229 6.85908 10.7163 4.53673 10.7163 4.53673L13.2545 4.55261C13.2545 4.55261 12.8576 5.80799 12.4416 6.36476C12.1992 6.69078 11.3948 7.41691 11.4265 7.95568C11.4519 8.38226 12.1061 8.79719 12.4427 9.14015Z" fill="white"/>
</g>
<defs>
<clipPath id="clip0">
<rect width="15" height="15" fill="white"/>
</clipPath>
</defs>
</svg>
